# xmcd CD database file
#
# Track frame offsets:
#	150
#	14195
#	39987
#	55297
#	86580
#	103555
#	110790
#	121502
#	159825
#	171995
#	209430
#	232222
#
# Disc length: 3520 seconds
#
# Revision: 0
# Processed by: cddbd v1.5.2PL0 Copyright (c) Steve Scherf et al.
# Submitted via: CDex 1.70beta2
#
DISCID=a00dbe0c
DTITLE=Various Artist - Evolve or die
DYEAR=1996
DGENRE=New Age
TTITLE0=Respect - OOIOO
TTITLE1=A Real Mother For Ya - ASTEROID DESERT SONGS (A.D.S)
TTITLE2=I Just Want To Make Love To You - GUITAR WOLF
TTITLE3=Tramp - INCENSE
TTITLE4=Baby, I Love You So - DYNAMITE MASTERS BLUES QUALTET (D.M.B.Q)
TTITLE5=I Just Want To Make Love To You - KEIICHI SOKABE BLUES PROJECT
TTITLE6=(a)Smoking Gun (b)Sweet Home Chicago (c)Lonesome Whistle Blues - SLIGHT SLAPPERS
TTITLE7=Sad Days, Lonely Nights - BUFFALO DAUGHTER
TTITLE8=The Great Grand Father - SEAGULL SCREAMING KISS HER KISS HER
TTITLE9=ALEC's Blues - ALEC EMPIRE
TTITLE10=Rob and Steal - MASONNA
TTITLE11=Dust My Blues - HOI VOO DOO
EXTD=YEAR: 1996
EXTT0=
EXTT1=
EXTT2=
EXTT3=
EXTT4=
EXTT5=
EXTT6=
EXTT7=
EXTT8=
EXTT9=
EXTT10=
EXTT11=
PLAYORDER=
